<svg xmlns="http://www.w3.org/2000/svg" viewBox="0 0 64 64">
  <defs>
    <linearGradient id="g" x1="0" y1="0" x2="1" y2="1">
      <stop offset="0" stop-color="#d97757"/>
      <stop offset="1" stop-color="#b85a3e"/>
    </linearGradient>
  </defs>
  <rect x="4" y="4" width="56" height="56" rx="14" fill="url(#g)"/>
  <path d="M22 22 L18 42 L24 42 L25 38 L31 38 L32 42 L38 42 L34 22 L28 22 Z M26 33 L28 26 L30 33 Z"
        fill="#1e1e2e"/>
  <path d="M40 22 L40 42 L46 42 L46 35 L50 35 Q56 35 56 28.5 Q56 22 50 22 Z M46 27 L49 27 Q51 27 51 28.5 Q51 30 49 30 L46 30 Z"
        fill="#1e1e2e"/>
</svg>
